<svg width="214" height="186" viewBox="0 0 214 186" fill="none" xmlns="http://www.w3.org/2000/svg">
<path d="M41.8 113H27.208V111.512L31.72 108.008L28.024 99.128H11.896L7.96 108.2L16.408 111.08L15.448 113H0.856V111.512L5.368 107.96L18.952 76.808L23.944 74.36L37.96 108.152L42.76 111.08L41.8 113ZM20.152 80.12L12.856 96.968H27.16L20.152 80.12ZM73.6776 113H64.5576V108.008L58.4616 113.096C57.7896 113.352 56.9096 113.48 55.8216 113.48C53.6456 113.48 51.9176 112.824 50.6376 111.512C49.3576 110.168 48.7176 108.36 48.7176 106.088V94.616L44.4456 92.12V90.632L52.6536 86.6H54.4776V103.688C54.4776 105.448 54.7496 106.68 55.2936 107.384C55.8376 108.088 56.8136 108.44 58.2216 108.44C59.2136 108.44 60.1896 108.264 61.1496 107.912C62.1096 107.528 63.2456 106.792 64.5576 105.704V94.616L60.2856 92.12V90.632L68.4936 86.6H70.3176V109.4L74.6376 111.08L73.6776 113ZM107.96 113H98.8401V109.544L94.3761 113.096C93.3521 113.352 92.1201 113.48 90.6801 113.48C88.5681 113.48 86.6641 112.936 84.9681 111.848C83.3041 110.728 81.9921 109.224 81.0321 107.336C80.1041 105.448 79.6401 103.368 79.6401 101.096C79.6401 98.632 80.3921 96.328 81.8961 94.184C83.4001 92.008 85.2721 90.28 87.5121 89C89.7841 87.688 91.9761 87.032 94.0881 87.032C95.8481 87.032 97.4481 87.528 98.8881 88.52V78.632L94.6161 75.656V74.168L102.824 71.096H104.648V109.4L108.92 111.08L107.96 113ZM93.1281 109.4C94.0881 109.4 95.0001 109.272 95.8641 109.016C96.7601 108.728 97.7521 108.2 98.8401 107.432V96.488C98.6481 94.888 97.8961 93.592 96.5841 92.6C95.3041 91.576 93.5441 91.064 91.3041 91.064C87.6881 91.064 85.8801 93.64 85.8801 98.792C85.8801 101.8 86.5041 104.328 87.7521 106.376C89.0001 108.392 90.7921 109.4 93.1281 109.4ZM126.204 113H112.812V111.512L117.084 108.152V94.136L112.812 91.16V89.672L121.02 86.6H122.844V109.4L127.164 111.08L126.204 113ZM119.772 72.2C120.732 72.2 121.516 72.552 122.124 73.256C122.764 73.96 123.084 74.84 123.084 75.896C123.084 76.632 122.86 77.336 122.412 78.008C121.964 78.648 121.404 79.16 120.732 79.544C120.06 79.928 119.404 80.12 118.764 80.12C117.804 80.12 117.004 79.768 116.364 79.064C115.756 78.36 115.452 77.48 115.452 76.424C115.452 75.688 115.676 75 116.124 74.36C116.572 73.688 117.132 73.16 117.804 72.776C118.476 72.392 119.132 72.2 119.772 72.2ZM146.636 87.032C148.748 87.032 150.636 87.592 152.3 88.712C153.996 89.8 155.308 91.288 156.236 93.176C157.196 95.064 157.676 97.144 157.676 99.416C157.676 101.88 156.924 104.2 155.42 106.376C153.916 108.52 152.028 110.248 149.756 111.56C147.516 112.84 145.34 113.48 143.228 113.48C141.116 113.48 139.212 112.936 137.516 111.848C135.852 110.728 134.54 109.224 133.58 107.336C132.652 105.448 132.188 103.368 132.188 101.096C132.188 98.632 132.94 96.328 134.444 94.184C135.948 92.008 137.82 90.28 140.06 89C142.332 87.688 144.524 87.032 146.636 87.032ZM143.852 91.064C140.236 91.064 138.428 93.64 138.428 98.792C138.428 101.832 139.084 104.376 140.396 106.424C141.708 108.44 143.58 109.448 146.012 109.448C149.628 109.448 151.436 106.856 151.436 101.672C151.436 98.664 150.78 96.152 149.468 94.136C148.156 92.088 146.284 91.064 143.852 91.064Z" fill="#1E1E1E"/>
<path d="M210.184 123H188.296V120.768L193.984 116.376L180.304 99.096L165.328 116.016L175.768 120.12L174.328 123H152.44V120.768L160.432 115.872L178.072 96.216L160.432 73.68L153.16 69.288L154.6 66.408H176.488V68.64L170.8 73.032L184.408 90.168L198.16 73.464L187.648 69.288L189.088 66.408H210.976V68.64L203.56 73.176L186.784 93.12L204.424 115.728L211.624 120.12L210.184 123Z" fill="#1E1E1E"/>
</svg>
