<svg width="211" height="186" viewBox="0 0 211 186" fill="none" xmlns="http://www.w3.org/2000/svg">
<path d="M41.8 109H27.208V107.512L31.72 104.008L28.024 95.128H11.896L7.96 104.2L16.408 107.08L15.448 109H0.856V107.512L5.368 103.96L18.952 72.808L23.944 70.36L37.96 104.152L42.76 107.08L41.8 109ZM20.152 76.12L12.856 92.968H27.16L20.152 76.12ZM73.6776 109H64.5576V104.008L58.4616 109.096C57.7896 109.352 56.9096 109.48 55.8216 109.48C53.6456 109.48 51.9176 108.824 50.6376 107.512C49.3576 106.168 48.7176 104.36 48.7176 102.088V90.616L44.4456 88.12V86.632L52.6536 82.6H54.4776V99.688C54.4776 101.448 54.7496 102.68 55.2936 103.384C55.8376 104.088 56.8136 104.44 58.2216 104.44C59.2136 104.44 60.1896 104.264 61.1496 103.912C62.1096 103.528 63.2456 102.792 64.5576 101.704V90.616L60.2856 88.12V86.632L68.4936 82.6H70.3176V105.4L74.6376 107.08L73.6776 109ZM107.96 109H98.8401V105.544L94.3761 109.096C93.3521 109.352 92.1201 109.48 90.6801 109.48C88.5681 109.48 86.6641 108.936 84.9681 107.848C83.3041 106.728 81.9921 105.224 81.0321 103.336C80.1041 101.448 79.6401 99.368 79.6401 97.096C79.6401 94.632 80.3921 92.328 81.8961 90.184C83.4001 88.008 85.2721 86.28 87.5121 85C89.7841 83.688 91.9761 83.032 94.0881 83.032C95.8481 83.032 97.4481 83.528 98.8881 84.52V74.632L94.6161 71.656V70.168L102.824 67.096H104.648V105.4L108.92 107.08L107.96 109ZM93.1281 105.4C94.0881 105.4 95.0001 105.272 95.8641 105.016C96.7601 104.728 97.7521 104.2 98.8401 103.432V92.488C98.6481 90.888 97.8961 89.592 96.5841 88.6C95.3041 87.576 93.5441 87.064 91.3041 87.064C87.6881 87.064 85.8801 89.64 85.8801 94.792C85.8801 97.8 86.5041 100.328 87.7521 102.376C89.0001 104.392 90.7921 105.4 93.1281 105.4ZM126.204 109H112.812V107.512L117.084 104.152V90.136L112.812 87.16V85.672L121.02 82.6H122.844V105.4L127.164 107.08L126.204 109ZM119.772 68.2C120.732 68.2 121.516 68.552 122.124 69.256C122.764 69.96 123.084 70.84 123.084 71.896C123.084 72.632 122.86 73.336 122.412 74.008C121.964 74.648 121.404 75.16 120.732 75.544C120.06 75.928 119.404 76.12 118.764 76.12C117.804 76.12 117.004 75.768 116.364 75.064C115.756 74.36 115.452 73.48 115.452 72.424C115.452 71.688 115.676 71 116.124 70.36C116.572 69.688 117.132 69.16 117.804 68.776C118.476 68.392 119.132 68.2 119.772 68.2ZM146.636 83.032C148.748 83.032 150.636 83.592 152.3 84.712C153.996 85.8 155.308 87.288 156.236 89.176C157.196 91.064 157.676 93.144 157.676 95.416C157.676 97.88 156.924 100.2 155.42 102.376C153.916 104.52 152.028 106.248 149.756 107.56C147.516 108.84 145.34 109.48 143.228 109.48C141.116 109.48 139.212 108.936 137.516 107.848C135.852 106.728 134.54 105.224 133.58 103.336C132.652 101.448 132.188 99.368 132.188 97.096C132.188 94.632 132.94 92.328 134.444 90.184C135.948 88.008 137.82 86.28 140.06 85C142.332 83.688 144.524 83.032 146.636 83.032ZM143.852 87.064C140.236 87.064 138.428 89.64 138.428 94.792C138.428 97.832 139.084 100.376 140.396 102.424C141.708 104.44 143.58 105.448 146.012 105.448C149.628 105.448 151.436 102.856 151.436 97.672C151.436 94.664 150.78 92.152 149.468 90.136C148.156 88.088 146.284 87.064 143.852 87.064Z" fill="#1E1E1E"/>
<path d="M207.184 123H185.296V120.768L190.984 116.376L177.304 99.096L162.328 116.016L172.768 120.12L171.328 123H149.44V120.768L157.432 115.872L175.072 96.216L157.432 73.68L150.16 69.288L151.6 66.408H173.488V68.64L167.8 73.032L181.408 90.168L195.16 73.464L184.648 69.288L186.088 66.408H207.976V68.64L200.56 73.176L183.784 93.12L201.424 115.728L208.624 120.12L207.184 123Z" fill="url(#paint0_linear_1_35)"/>
<defs>
<linearGradient id="paint0_linear_1_35" x1="179.5" y1="0" x2="179.5" y2="186" gradientUnits="userSpaceOnUse">
<stop stop-color="#526CBE"/>
<stop offset="0.5" stop-color="#37863A"/>
<stop offset="1" stop-color="#721414"/>
</linearGradient>
</defs>
</svg>
